<?xml version="1.0" encoding="UTF-8" standalone="no"?>
<!-- Created with Inkscape (http://www.inkscape.org/) -->

<svg
   xmlns:dc="http://purl.org/dc/elements/1.1/"
   xmlns:cc="http://creativecommons.org/ns#"
   xmlns:rdf="http://www.w3.org/1999/02/22-rdf-syntax-ns#"
   xmlns:svg="http://www.w3.org/2000/svg"
   xmlns="http://www.w3.org/2000/svg"
   xmlns:sodipodi="http://sodipodi.sourceforge.net/DTD/sodipodi-0.dtd"
   xmlns:inkscape="http://www.inkscape.org/namespaces/inkscape"
   width="119.69479mm"
   height="110.05734mm"
   viewBox="0 0 424.11538 389.96696"
   id="svg2"
   version="1.1"
   inkscape:version="0.91 r13725"
   sodipodi:docname="logo_astrabot_green_on_black.svg">
  <defs
     id="defs4" />
  <sodipodi:namedview
     id="base"
     pagecolor="#000000"
     bordercolor="#666666"
     borderopacity="1.0"
     inkscape:pageopacity="0"
     inkscape:pageshadow="2"
     inkscape:zoom="1.1396402"
     inkscape:cx="204.59915"
     inkscape:cy="228.66828"
     inkscape:document-units="px"
     inkscape:current-layer="layer1"
     showgrid="false"
     inkscape:window-width="1366"
     inkscape:window-height="714"
     inkscape:window-x="-6"
     inkscape:window-y="0"
     inkscape:window-maximized="1"
     fit-margin-left="1"
     fit-margin-top="1"
     fit-margin-right="1"
     fit-margin-bottom="1" />
  <metadata
     id="metadata7">
    <rdf:RDF>
      <cc:Work
         rdf:about="">
        <dc:format>image/svg+xml</dc:format>
        <dc:type
           rdf:resource="http://purl.org/dc/dcmitype/StillImage" />
        <dc:title></dc:title>
      </cc:Work>
    </rdf:RDF>
  </metadata>
  <g
     inkscape:label="Calque 1"
     inkscape:groupmode="layer"
     id="layer1"
     transform="translate(-7.3098283,-656.74026)">
    <g
       id="g4179"
       transform="matrix(0.86411642,0,0,0.86411642,-89.545492,614.46521)"
       style="fill:#00d200;fill-opacity:1;stroke:none">
      <g
         style="fill:#00d200;fill-opacity:1;stroke:none;stroke-opacity:1"
         transform="translate(-18.182748,-384.86812)"
         id="g4161">
        <path
           style="fill:#00d200;fill-opacity:1;fill-rule:evenodd;stroke:none;stroke-width:1px;stroke-linecap:butt;stroke-linejoin:miter;stroke-opacity:1"
           d="m 385.87827,444.25037 c -162.47625,0.31895 -204.61559,143.13627 -191.92899,233.34524 11.6973,83.17443 89.90358,158.59395 206.07113,154.55334 65.65128,-2.28352 150.51273,-77.78175 151.52288,-161.62441 1.01015,-83.84266 -41.26306,-135.69556 -69.70053,-148.49242 -40.4061,-18.18274 -71.72082,-14.64721 -3.03045,-60.60916 -64.14469,25.75889 -132.32998,57.5787 -151.52289,76.7716 -47.98491,47.98489 -47.57044,76.34728 -31.79442,110.87167 4.57632,10.01487 18.89687,-16.07863 29.84218,-3.96226 2.93515,3.24919 1.91802,26.61071 -10.46917,26.64057 -5.07907,0.0122 2.82496,15.44752 10.40111,13.93229 15.15229,-3.03046 11.11168,-32.32488 26.26397,-41.41625 15.15228,-9.09138 8.08122,-25.25382 14.14213,-27.27412 6.06092,-2.02031 6.06092,-14.14214 13.13198,-14.14214 7.07107,0 18.18275,-6.06091 25.25382,-1.01015 7.07107,5.05076 2.0203,11.11168 9.09137,15.15229 7.07107,4.04061 12.12183,5.05076 13.13198,11.11168 1.01016,6.06091 -5.05075,17.17258 -15.15228,28.28426 -10.10152,11.11168 26.26396,19.1929 31.31472,38.3858 5.05076,19.1929 9.07577,85.39453 -88.89342,88.89343 -56.56855,2.0203 -122.22846,-64.64976 -128.28937,-118.18785 -3.56809,-31.51811 -38.3858,-180.81731 160.61425,-221.22341 z"
           id="path4155"
           inkscape:connector-curvature="0"
           sodipodi:nodetypes="csssscsssssssssssssssc" />
        <path
           style="fill:#00d200;fill-opacity:1;fill-rule:evenodd;stroke:none;stroke-width:1px;stroke-linecap:butt;stroke-linejoin:miter;stroke-opacity:1"
           d="m 313.21429,674.68363 c -3.68501,-4.53825 -4.5282,-9.19271 -4.97462,-11.69272 4.46428,3.57143 5.59962,4.46058 9.52818,5.35344 -2.84445,-3.34953 -3.49111,-7.65691 -3.49111,-7.65691 2.5,1.25 6.29831,3.93847 10.54469,4.17477 2.14072,5.72689 -7.03036,10.19169 -11.60714,9.82142 z"
           id="path4157"
           inkscape:connector-curvature="0"
           sodipodi:nodetypes="cccccc" />
        <path
           style="fill:#00d200;fill-opacity:1;fill-rule:evenodd;stroke:none;stroke-width:1px;stroke-linecap:butt;stroke-linejoin:miter;stroke-opacity:1"
           d="m 295.84842,648.30119 c 1.01015,6.56599 3.03046,8.83882 8.96511,13.51078 -1.64149,-3.6618 -2.14657,-6.06091 -2.0203,-9.3439 2.39911,2.39911 5.3033,4.29315 8.71256,4.79822 -2.0203,-5.05076 -2.90419,-6.81853 -1.51523,-9.97526 2.90419,3.283 6.06092,6.9448 8.5863,8.08122 0.12627,-3.15673 -0.3788,-9.47018 -2.02031,-12.75317 -0.50508,-3.283 -18.81409,-1.51523 -20.70813,5.68211 z"
           id="path4159"
           inkscape:connector-curvature="0"
           sodipodi:nodetypes="cccccccc" />
      </g>
      <path
         sodipodi:nodetypes="cssssssssssssssssssssssscssssc"
         inkscape:connector-curvature="0"
         id="path4177"
         d="m 264.28571,79.505061 c -7.85714,0 -42.14285,-27.857143 -50,-26.428572 -7.85714,1.428572 -57.14285,45.714286 -55.71428,53.571431 1.42857,7.85714 27.14286,38.57143 27.14286,45.71428 0,7.14286 -7.85715,37.14286 -13.57143,37.85715 -5.71429,0.71428 -45.07179,9.56671 -50.07179,14.56671 -5,5 -8.56695,69.44079 -3.23967,77.43873 5.62763,8.44888 44.59024,20.53974 48.31146,23.70884 4.14149,3.52701 17.85714,30 15.71428,38.57143 -2.14285,8.57143 -26.42857,43.57143 -25.71428,48.57143 0.71428,5 44.28571,47.14286 52.14285,51.42857 7.85715,4.28572 44.28572,-29.28571 48.57143,-24.28571 4.28572,5 42.85715,16.42857 47.85715,22.85714 5,6.42857 7.14285,47.85714 14.28571,50.71429 7.14286,2.85714 65.71429,3.57142 70.71429,-0.71429 5,-4.28571 12.14285,-52.85714 17.14285,-52.85714 5,0 40.57572,-23.2117 45.71429,-22.85715 5.38252,0.37138 45.29199,24.42927 49.57414,23.69398 4.66453,-0.80093 49.28572,-38.57143 50,-45.71429 0.71429,-7.14285 -26.00271,-45.12254 -25.28843,-52.97969 0.71429,-7.85714 12.14286,-36.42857 17.85715,-42.85714 5.71428,-6.42857 48.52066,-10.71428 50.66352,-17.14286 2.14286,-6.42857 5,-71.42857 -2.14286,-76.42857 -7.14285,-5 -48.52066,-9.28571 -53.52066,-15.71428 -5,-6.42857 -69.80566,-46.20089 -69.80566,-46.20089 0,0 23.37708,206.91517 -23.05149,239.77232 C 401.42857,416.64792 304.28571,455.93363 260,402.3622 215.71429,348.79078 170,235.21935 187.85714,206.64792 c 17.85715,-28.57143 55,-111.428573 79.28572,-117.142859 24.28571,-5.714286 -2.85715,-10 -2.85715,-10 z"
         style="fill:#00d200;fill-opacity:1;fill-rule:evenodd;stroke:none;stroke-width:1px;stroke-linecap:butt;stroke-linejoin:miter;stroke-opacity:1" />
    </g>
  </g>
</svg>
